<svg width="300" height="300" viewBox="0 0 300 300" xmlns="http://www.w3.org/2000/svg" xmlns:xlink="http://www.w3.org/1999/xlink">
  <symbol id="logo" viewBox="0 0 300 300">
    <path id="masto" fill="#17063b" stroke="#6364ff" stroke-width="7.665087" stroke-linecap="round" stroke-linejoin="round" d="M 283.900818 69.215714 C 279.620789 38.301788 252.570084 14.030182 220.595764 9.429596 C 215.201218 8.65213 194.762772 5.825989 147.443588 6.007568 L 147.090103 6.008942 C 99.757797 6.190582 89.61451 9.134155 84.226082 9.952972 C 53.177349 14.664612 24.890766 36.67572 18.127596 67.998367 C 14.875976 83.423981 14.588229 100.51265 15.263435 116.184845 C 16.226467 138.65918 16.482708 161.097244 18.610046 183.475662 C 20.078398 198.340591 22.597008 213.082703 26.14691 227.59201 C 32.792896 254.388855 59.364723 276.608246 85.349281 285.614716 C 113.168571 295.004791 143.05307 296.466827 171.656281 289.836945 C 174.802872 289.092072 177.909683 288.229645 180.97702 287.249695 C 187.930191 285.011841 196.073181 282.507446 202.049988 278.14093 C 202.132095 278.079407 202.199203 278.000458 202.246246 277.909882 C 202.293625 277.81897 202.319855 277.718658 202.322723 277.616272 L 202.239456 255.923447 C 202.23764 255.827972 202.214691 255.734039 202.171707 255.64859 C 202.128784 255.563126 202.067612 255.488297 201.991974 255.429535 C 201.916321 255.370804 201.82872 255.329971 201.735336 255.309555 C 201.641968 255.289154 201.545059 255.289886 201.452209 255.311722 C 183.127136 259.762451 164.340027 262.030762 145.482025 262.068512 C 113.028435 262.193085 104.241119 246.826752 101.716805 240.425293 C 99.686653 234.892105 98.388748 229.117416 97.856071 223.247986 C 97.850227 223.149246 97.86808 223.050812 97.907806 222.960266 C 97.947189 222.869751 98.007721 222.79007 98.084007 222.727478 C 98.160278 222.66452 98.25013 222.620789 98.346603 222.599304 C 98.443092 222.577789 98.542938 222.579224 98.638878 222.603638 C 116.691727 226.885223 135.18927 229.010437 153.743225 228.934113 C 158.205505 228.916992 162.654709 228.899902 167.116547 228.765106 C 185.775284 228.170212 205.43988 227.139664 223.785873 223.484344 C 224.243561 223.390747 224.701294 223.310669 225.093307 223.191452 C 254.031387 217.519379 281.523895 199.960083 284.154602 155.752213 C 284.252502 154.011871 284.451233 137.525177 284.444305 135.71962 C 284.433472 129.583252 286.25296 92.182114 283.900818 69.215714 Z"/>
    <path id="dot" fill="#6364ff" fill-rule="evenodd" stroke="none" d="M 84.383842 79.054016 C 80.609016 79.068497 77.439827 77.776077 74.876228 75.176682 C 72.312622 72.577301 71.023819 69.445663 71.009758 65.781708 C 70.996544 62.339798 72.289543 59.337067 74.888847 56.773376 C 77.488152 54.209686 80.619705 52.920837 84.283493 52.906769 C 87.725327 52.89357 90.727852 54.158875 93.291237 56.702744 C 95.85463 59.246613 97.142899 62.239441 97.156113 65.681381 C 97.170166 69.345322 95.933167 72.486633 93.445122 75.105423 C 90.957062 77.724213 87.936661 79.04039 84.383842 79.054016 Z"/>
    <path id="io" fill="#ffffff" fill-rule="evenodd" stroke="none" d="M 148.370438 183.615097 C 139.651352 183.64856 132.127853 182.126923 125.799706 179.05014 C 119.471573 175.973328 114.616394 171.282394 111.234047 164.977188 C 107.8517 158.671951 106.142258 150.753723 106.105682 141.22226 C 106.068794 131.610947 107.717323 123.659851 111.051323 117.36879 C 114.38533 111.077698 119.204437 106.369614 125.508774 103.244339 C 131.813126 100.119064 139.324722 98.539719 148.043793 98.506256 C 156.842743 98.472488 164.390579 99.994034 170.687515 103.070938 C 176.984482 106.147842 181.823959 110.818878 185.206161 117.084183 C 188.588364 123.349487 190.297867 131.287674 190.334747 140.899002 C 190.371338 150.430435 188.722717 158.361572 185.388885 164.692581 C 182.055023 171.023575 177.251602 175.751587 170.978455 178.87674 C 164.705322 182.001892 157.169388 183.581329 148.370438 183.615097 Z M 148.314362 169.005371 C 152.189087 168.990524 155.597382 168.408707 158.539291 167.259933 C 161.481232 166.111176 163.952469 164.428879 165.953125 162.212997 C 167.953766 159.997116 169.463547 157.27153 170.482544 154.036148 C 171.501541 150.800751 172.003021 147.09787 171.987 142.927383 L 171.972687 139.198669 C 171.956436 134.965805 171.426376 131.220398 170.382462 127.962341 C 169.338562 124.7043 167.807831 121.974762 165.790237 119.773697 C 163.772629 117.572617 161.288559 115.909042 158.337891 114.782883 C 155.387238 113.656738 151.974594 113.101089 148.099854 113.115967 C 144.223892 113.130859 140.815002 113.712646 137.873062 114.86142 C 134.931137 116.010208 132.464554 117.692795 130.473282 119.909256 C 128.481995 122.125702 126.992546 124.866806 126.004875 128.132645 C 125.017204 131.398514 124.531502 135.147827 124.547737 139.380692 L 124.562057 143.109406 C 124.578056 147.279877 125.092354 150.978867 126.10495 154.206467 C 127.117546 157.434067 128.62793 160.148056 130.636169 162.348557 C 132.644394 164.549026 135.123825 166.212311 138.074463 167.33847 C 141.025131 168.46463 144.4384 169.020264 148.314362 169.005371 Z M 75.152718 182.458511 L 74.837105 100.224823 L 92.780579 100.155945 L 93.096184 182.389648 Z"/>
  </symbol>
  <use xlink:href="#logo"/>
</svg>
