<svg width="1186" height="300" viewBox="0 0 1186 300" xmlns="http://www.w3.org/2000/svg">
  <symbol id="logo-symbol-wordmark" viewBox="0 0 1186 300">
    <path id="masto" fill="#17063b" stroke="#6364ff" stroke-width="7.665087" stroke-linecap="round" stroke-linejoin="round" d="M 273.900818 69.215714 C 269.620789 38.301788 242.570084 14.030182 210.595764 9.429596 C 205.201218 8.65213 184.762772 5.825989 137.443588 6.007568 L 137.090103 6.008942 C 89.757797 6.190582 79.61451 9.134155 74.226082 9.952972 C 43.177349 14.664612 14.890766 36.67572 8.127596 67.998367 C 4.875976 83.423981 4.588229 100.51265 5.263435 116.184845 C 6.226467 138.65918 6.482708 161.097244 8.610046 183.475662 C 10.078398 198.340591 12.597008 213.082703 16.14691 227.59201 C 22.792896 254.388855 49.364723 276.608246 75.349281 285.614716 C 103.168571 295.004791 133.05307 296.466827 161.656281 289.836945 C 164.802872 289.092072 167.909683 288.229645 170.97702 287.249695 C 177.930191 285.011841 186.073181 282.507446 192.049988 278.14093 C 192.132095 278.079407 192.199203 278.000458 192.246246 277.909882 C 192.293625 277.81897 192.319855 277.718658 192.322723 277.616272 L 192.239456 255.923447 C 192.23764 255.827972 192.214691 255.734039 192.171707 255.64859 C 192.128784 255.563126 192.067612 255.488297 191.991974 255.429535 C 191.916321 255.370804 191.82872 255.329971 191.735336 255.309555 C 191.641968 255.289154 191.545059 255.289886 191.452209 255.311722 C 173.127136 259.762451 154.340027 262.030762 135.482025 262.068512 C 103.028435 262.193085 94.241119 246.826752 91.716805 240.425293 C 89.686653 234.892105 88.388748 229.117416 87.856071 223.247986 C 87.850227 223.149246 87.86808 223.050812 87.907806 222.960266 C 87.947189 222.869751 88.007721 222.79007 88.084007 222.727478 C 88.160278 222.66452 88.25013 222.620789 88.346603 222.599304 C 88.443092 222.577789 88.542938 222.579224 88.638878 222.603638 C 106.691727 226.885223 125.18927 229.010437 143.743225 228.934113 C 148.205505 228.916992 152.654709 228.899902 157.116547 228.765106 C 175.775284 228.170212 195.43988 227.139664 213.785873 223.484344 C 214.243561 223.390747 214.701294 223.310669 215.093307 223.191452 C 244.031387 217.519379 271.523895 199.960083 274.154602 155.752213 C 274.252502 154.011871 274.451233 137.525177 274.444305 135.71962 C 274.433472 129.583252 276.25296 92.182114 273.900818 69.215714 Z"/>
    <path id="dot" fill="#6364ff" fill-rule="evenodd" stroke="none" d="M 74.383842 79.054016 C 70.609016 79.068497 67.439827 77.776077 64.876228 75.176682 C 62.312622 72.577301 61.023819 69.445663 61.009758 65.781708 C 60.996544 62.339798 62.289543 59.337067 64.888847 56.773376 C 67.488152 54.209686 70.619705 52.920837 74.283493 52.906769 C 77.725327 52.89357 80.727852 54.158875 83.291237 56.702744 C 85.85463 59.246613 87.142899 62.239441 87.156113 65.681381 C 87.170166 69.345322 85.933167 72.486633 83.445122 75.105423 C 80.957062 77.724213 77.936661 79.04039 74.383842 79.054016 Z"/>
    <path id="io" fill="#ffffff" fill-rule="evenodd" stroke="none" d="M 138.370438 183.615097 C 129.651352 183.64856 122.127853 182.126923 115.799706 179.05014 C 109.471573 175.973328 104.616394 171.282394 101.234047 164.977188 C 97.8517 158.671951 96.142258 150.753723 96.105682 141.22226 C 96.068794 131.610947 97.717323 123.659851 101.051323 117.36879 C 104.38533 111.077698 109.204437 106.369614 115.508774 103.244339 C 121.813126 100.119064 129.324722 98.539719 138.043793 98.506256 C 146.842743 98.472488 154.390579 99.994034 160.687515 103.070938 C 166.984482 106.147842 171.823959 110.818878 175.206161 117.084183 C 178.588364 123.349487 180.297867 131.287674 180.334747 140.899002 C 180.371338 150.430435 178.722717 158.361572 175.388885 164.692581 C 172.055023 171.023575 167.251602 175.751587 160.978455 178.87674 C 154.705322 182.001892 147.169388 183.581329 138.370438 183.615097 Z M 138.314362 169.005371 C 142.189087 168.990524 145.597382 168.408707 148.539291 167.259933 C 151.481232 166.111176 153.952469 164.428879 155.953125 162.212997 C 157.953766 159.997116 159.463547 157.27153 160.482544 154.036148 C 161.501541 150.800751 162.003021 147.09787 161.987 142.927383 L 161.972687 139.198669 C 161.956436 134.965805 161.426376 131.220398 160.382462 127.962341 C 159.338562 124.7043 157.807831 121.974762 155.790237 119.773697 C 153.772629 117.572617 151.288559 115.909042 148.337891 114.782883 C 145.387238 113.656738 141.974594 113.101089 138.099854 113.115967 C 134.223892 113.130859 130.815002 113.712646 127.873062 114.86142 C 124.931137 116.010208 122.464554 117.692795 120.473282 119.909256 C 118.481995 122.125702 116.992546 124.866806 116.004875 128.132645 C 115.017204 131.398514 114.531502 135.147827 114.547737 139.380692 L 114.562057 143.109406 C 114.578056 147.279877 115.092354 150.978867 116.10495 154.206467 C 117.117546 157.434067 118.62793 160.148056 120.636169 162.348557 C 122.644394 164.549026 125.123825 166.212311 128.074463 167.33847 C 131.025131 168.46463 134.4384 169.020264 138.314362 169.005371 Z M 65.152718 182.458511 L 64.837105 100.224823 L 82.780579 100.155945 L 83.096184 182.389648 Z"/>
  </symbol>
  <use href="#logo-symbol-wordmark" />
</svg>
